M48
; DRILL file {KiCad 8.0.9-1.fc40} date 2025-07-05T11:51:35+0800
; FORMAT={-:-/ absolute / inch / decimal}
; #@! TF.CreationDate,2025-07-05T11:51:35+08:00
; #@! TF.GenerationSoftware,Kicad,Pcbnew,8.0.9-1.fc40
; #@! TF.FileFunction,Plated,1,2,PTH
FMAT,2
INCH
; #@! TA.AperFunction,Plated,PTH,ComponentDrill
T1C0.0276
; #@! TA.AperFunction,Plated,PTH,ComponentDrill
T2C0.0350
; #@! TA.AperFunction,Plated,PTH,ComponentDrill
T3C0.0476
; #@! TA.AperFunction,Plated,PTH,ComponentDrill
T4C0.0591
; #@! TA.AperFunction,Plated,PTH,ViaDrill
T5C0.1969
%
G90
G05
T1
X9.0362Y-1.9949
X9.0362Y-2.1949
X9.0362Y-2.5559
X9.0362Y-2.7559
X10.8547Y-1.9949
X10.8547Y-2.1949
X10.8547Y-2.5559
X10.8547Y-2.7559
T2
X9.6409Y-2.1213
X9.6409Y-2.2213
X9.6409Y-2.3213
X9.6409Y-2.4213
X9.6409Y-2.5213
X9.6409Y-2.6213
X9.6409Y-2.7213
X10.2409Y-2.1213
X10.2409Y-2.2213
X10.2409Y-2.3213
X10.2409Y-2.4213
X10.2409Y-2.5213
X10.2409Y-2.6213
X10.2409Y-2.7213
T3
X9.261Y-2.1063
X9.261Y-2.6476
X9.361Y-2.1063
X9.361Y-2.6476
X10.5299Y-2.1063
X10.5299Y-2.6476
X10.6299Y-2.1063
X10.6299Y-2.6476
T4
X9.35Y-4.0732
X9.3531Y-3.2465
X9.6Y-3.9732
X9.6031Y-3.1465
X10.2299Y-3.2465
X10.2299Y-4.0732
X10.4799Y-3.1465
X10.4799Y-3.9732
T5
X9.1732Y-1.4764
M30
