%TF.GenerationSoftware,KiCad,Pcbnew,8.0.9-1.fc40*%
%TF.CreationDate,2025-07-05T11:51:32+08:00*%
%TF.ProjectId,pcb,7063622e-6b69-4636-9164-5f7063625858,rev?*%
%TF.SameCoordinates,Original*%
%TF.FileFunction,Copper,L2,Bot*%
%TF.FilePolarity,Positive*%
%FSLAX46Y46*%
G04 Gerber Fmt 4.6, Leading zero omitted, Abs format (unit mm)*
G04 Created by KiCad (PCBNEW 8.0.9-1.fc40) date 2025-07-05 11:51:32*
%MOMM*%
%LPD*%
G01*
G04 APERTURE LIST*
%TA.AperFunction,ComponentPad*%
%ADD10C,2.200000*%
%TD*%
%TA.AperFunction,ComponentPad*%
%ADD11R,1.815000X1.815000*%
%TD*%
%TA.AperFunction,ComponentPad*%
%ADD12C,1.815000*%
%TD*%
%TA.AperFunction,ComponentPad*%
%ADD13O,1.400000X1.400000*%
%TD*%
%TA.AperFunction,ComponentPad*%
%ADD14C,1.400000*%
%TD*%
%TA.AperFunction,ComponentPad*%
%ADD15C,1.524000*%
%TD*%
%TA.AperFunction,ViaPad*%
%ADD16C,5.500000*%
%TD*%
%TA.AperFunction,Conductor*%
%ADD17C,0.200000*%
%TD*%
G04 APERTURE END LIST*
D10*
%TO.P,SW3,2,2*%
%TO.N,GND*%
X237490000Y-103460000D03*
%TO.P,SW3,1,1*%
%TO.N,button3*%
X243840000Y-100920000D03*
%TD*%
D11*
%TO.P,D4,C*%
%TO.N,GND*%
X267460000Y-67250000D03*
D12*
%TO.P,D4,A*%
%TO.N,Net-(D4-PadA)*%
X270000000Y-67250000D03*
%TD*%
%TO.P,D2,A*%
%TO.N,Net-(D2-PadA)*%
X270000000Y-53500000D03*
D11*
%TO.P,D2,C*%
%TO.N,GND*%
X267460000Y-53500000D03*
%TD*%
D13*
%TO.P,R2,2*%
%TO.N,LED2*%
X275710000Y-50670000D03*
D14*
%TO.P,R2,1*%
%TO.N,Net-(D2-PadA)*%
X275710000Y-55750000D03*
%TD*%
D12*
%TO.P,D3,A*%
%TO.N,Net-(D3-PadA)*%
X235230000Y-67250000D03*
D11*
%TO.P,D3,C*%
%TO.N,GND*%
X237770000Y-67250000D03*
%TD*%
D10*
%TO.P,SW4,1,1*%
%TO.N,button4*%
X266190000Y-100920000D03*
%TO.P,SW4,2,2*%
%TO.N,GND*%
X259840000Y-103460000D03*
%TD*%
D13*
%TO.P,R1,2*%
%TO.N,LED1*%
X229520000Y-50670000D03*
D14*
%TO.P,R1,1*%
%TO.N,Net-(D1-PadA)*%
X229520000Y-55750000D03*
%TD*%
D12*
%TO.P,D1,A*%
%TO.N,Net-(D1-PadA)*%
X235230000Y-53500000D03*
D11*
%TO.P,D1,C*%
%TO.N,GND*%
X237770000Y-53500000D03*
%TD*%
D13*
%TO.P,R3,2*%
%TO.N,LED3*%
X229520000Y-64920000D03*
D14*
%TO.P,R3,1*%
%TO.N,Net-(D3-PadA)*%
X229520000Y-70000000D03*
%TD*%
%TO.P,R4,1*%
%TO.N,Net-(D4-PadA)*%
X275710000Y-70000000D03*
D13*
%TO.P,R4,2*%
%TO.N,LED4*%
X275710000Y-64920000D03*
%TD*%
D10*
%TO.P,SW1,1,1*%
%TO.N,button1*%
X243920000Y-79920000D03*
%TO.P,SW1,2,2*%
%TO.N,GND*%
X237570000Y-82460000D03*
%TD*%
%TO.P,SW2,2,2*%
%TO.N,GND*%
X259840000Y-82460000D03*
%TO.P,SW2,1,1*%
%TO.N,button2*%
X266190000Y-79920000D03*
%TD*%
D15*
%TO.P,U1,14,VBUS*%
%TO.N,unconnected-(U1-VBUS-Pad14)*%
X260120000Y-53880000D03*
%TO.P,U1,13,GND*%
%TO.N,GND*%
X260120000Y-56420000D03*
%TO.P,U1,12,3V3*%
%TO.N,unconnected-(U1-3V3-Pad12)*%
X260120000Y-58960000D03*
%TO.P,U1,11,GPIO3/MOSI*%
%TO.N,button4*%
X260120000Y-61500000D03*
%TO.P,U1,10,GPIO4/MISO*%
%TO.N,button2*%
X260120000Y-64040000D03*
%TO.P,U1,9,GPIO2/SCK*%
%TO.N,LED4*%
X260120000Y-66580000D03*
%TO.P,U1,8,GPIO1/RX*%
%TO.N,LED2*%
X260120000Y-69120000D03*
%TO.P,U1,7,GPIO0/TX*%
%TO.N,LED1*%
X244880000Y-69120000D03*
%TO.P,U1,6,GPIO7/SCL*%
%TO.N,LED3*%
X244880000Y-66580000D03*
%TO.P,U1,5,GPIO6/SDA*%
%TO.N,button1*%
X244880000Y-64040000D03*
%TO.P,U1,4,GPIO29/ADC3/A3*%
%TO.N,button3*%
X244880000Y-61500000D03*
%TO.P,U1,3,GPIO28/ADC2/A2*%
%TO.N,unconnected-(U1-GPIO28{slash}ADC2{slash}A2-Pad3)*%
X244880000Y-58960000D03*
%TO.P,U1,2,GPIO27/ADC1/A1*%
%TO.N,unconnected-(U1-GPIO27{slash}ADC1{slash}A1-Pad2)*%
X244880000Y-56420000D03*
%TO.P,U1,1,GPIO26/ADC0/A0*%
%TO.N,unconnected-(U1-GPIO26{slash}ADC0{slash}A0-Pad1)*%
X244880000Y-53880000D03*
%TD*%
D16*
%TO.N,*%
X233000000Y-37500000D03*
%TD*%
D17*
%TO.N,LED2*%
X275710000Y-50670000D02*
X277500000Y-52460000D01*
X277500000Y-72000000D02*
X263000000Y-72000000D01*
X277500000Y-52460000D02*
X277500000Y-72000000D01*
%TO.N,button3*%
X243840000Y-100920000D02*
X243840000Y-81819899D01*
X246500000Y-63120000D02*
X244880000Y-61500000D01*
X243840000Y-81819899D02*
X242520000Y-80499899D01*
X242520000Y-73480000D02*
X246500000Y-69500000D01*
X242520000Y-80499899D02*
X242520000Y-73480000D01*
X246500000Y-69500000D02*
X246500000Y-63120000D01*
%TO.N,button4*%
X258500000Y-63000000D02*
X258500000Y-76526598D01*
X258500000Y-63000000D02*
X258620000Y-63000000D01*
X258620000Y-63000000D02*
X260120000Y-61500000D01*
X258500000Y-76526598D02*
X266190000Y-84216598D01*
X266190000Y-84216598D02*
X266190000Y-100920000D01*
%TO.N,LED1*%
X227500000Y-52690000D02*
X227500000Y-72000000D01*
X229520000Y-50670000D02*
X227500000Y-52690000D01*
X227500000Y-72000000D02*
X242000000Y-72000000D01*
X242000000Y-72000000D02*
X244880000Y-69120000D01*
%TO.N,LED3*%
X229520000Y-64920000D02*
X243220000Y-64920000D01*
X243220000Y-64920000D02*
X244880000Y-66580000D01*
%TO.N,LED4*%
X275710000Y-64920000D02*
X261780000Y-64920000D01*
X261780000Y-64920000D02*
X260120000Y-66580000D01*
%TO.N,Net-(D1-PadA)*%
X229520000Y-55750000D02*
X232980000Y-55750000D01*
X232980000Y-55750000D02*
X235230000Y-53500000D01*
%TO.N,Net-(D3-PadA)*%
X229520000Y-70000000D02*
X232480000Y-70000000D01*
X232480000Y-70000000D02*
X235230000Y-67250000D01*
%TO.N,Net-(D2-PadA)*%
X275710000Y-55750000D02*
X272250000Y-55750000D01*
X272250000Y-55750000D02*
X270000000Y-53500000D01*
%TO.N,Net-(D4-PadA)*%
X275710000Y-70000000D02*
X272750000Y-70000000D01*
X272750000Y-70000000D02*
X270000000Y-67250000D01*
%TO.N,LED2*%
X263000000Y-72000000D02*
X260120000Y-69120000D01*
%TD*%
M02*
