%TF.GenerationSoftware,KiCad,Pcbnew,8.0.9-1.fc40*%
%TF.CreationDate,2025-07-05T11:51:32+08:00*%
%TF.ProjectId,pcb,7063622e-6b69-4636-9164-5f7063625858,rev?*%
%TF.SameCoordinates,Original*%
%TF.FileFunction,Copper,L1,Top*%
%TF.FilePolarity,Positive*%
%FSLAX46Y46*%
G04 Gerber Fmt 4.6, Leading zero omitted, Abs format (unit mm)*
G04 Created by KiCad (PCBNEW 8.0.9-1.fc40) date 2025-07-05 11:51:32*
%MOMM*%
%LPD*%
G01*
G04 APERTURE LIST*
G04 Aperture macros list*
%AMRoundRect*
0 Rectangle with rounded corners*
0 $1 Rounding radius*
0 $2 $3 $4 $5 $6 $7 $8 $9 X,Y pos of 4 corners*
0 Add a 4 corners polygon primitive as box body*
4,1,4,$2,$3,$4,$5,$6,$7,$8,$9,$2,$3,0*
0 Add four circle primitives for the rounded corners*
1,1,$1+$1,$2,$3*
1,1,$1+$1,$4,$5*
1,1,$1+$1,$6,$7*
1,1,$1+$1,$8,$9*
0 Add four rect primitives between the rounded corners*
20,1,$1+$1,$2,$3,$4,$5,0*
20,1,$1+$1,$4,$5,$6,$7,0*
20,1,$1+$1,$6,$7,$8,$9,0*
20,1,$1+$1,$8,$9,$2,$3,0*%
G04 Aperture macros list end*
%TA.AperFunction,ComponentPad*%
%ADD10C,2.200000*%
%TD*%
%TA.AperFunction,ComponentPad*%
%ADD11R,1.815000X1.815000*%
%TD*%
%TA.AperFunction,ComponentPad*%
%ADD12C,1.815000*%
%TD*%
%TA.AperFunction,ComponentPad*%
%ADD13O,1.400000X1.400000*%
%TD*%
%TA.AperFunction,ComponentPad*%
%ADD14C,1.400000*%
%TD*%
%TA.AperFunction,SMDPad,CuDef*%
%ADD15RoundRect,0.152400X-1.063600X-0.609600X1.063600X-0.609600X1.063600X0.609600X-1.063600X0.609600X0*%
%TD*%
%TA.AperFunction,ComponentPad*%
%ADD16C,1.524000*%
%TD*%
%TA.AperFunction,SMDPad,CuDef*%
%ADD17RoundRect,0.152400X1.063600X0.609600X-1.063600X0.609600X-1.063600X-0.609600X1.063600X-0.609600X0*%
%TD*%
%TA.AperFunction,ViaPad*%
%ADD18C,5.500000*%
%TD*%
%TA.AperFunction,Conductor*%
%ADD19C,0.200000*%
%TD*%
G04 APERTURE END LIST*
D10*
%TO.P,SW3,2,2*%
%TO.N,GND*%
X237490000Y-103460000D03*
%TO.P,SW3,1,1*%
%TO.N,button3*%
X243840000Y-100920000D03*
%TD*%
D11*
%TO.P,D4,C*%
%TO.N,GND*%
X267460000Y-67250000D03*
D12*
%TO.P,D4,A*%
%TO.N,Net-(D4-PadA)*%
X270000000Y-67250000D03*
%TD*%
%TO.P,D2,A*%
%TO.N,Net-(D2-PadA)*%
X270000000Y-53500000D03*
D11*
%TO.P,D2,C*%
%TO.N,GND*%
X267460000Y-53500000D03*
%TD*%
D13*
%TO.P,R2,2*%
%TO.N,LED2*%
X275710000Y-50670000D03*
D14*
%TO.P,R2,1*%
%TO.N,Net-(D2-PadA)*%
X275710000Y-55750000D03*
%TD*%
D12*
%TO.P,D3,A*%
%TO.N,Net-(D3-PadA)*%
X235230000Y-67250000D03*
D11*
%TO.P,D3,C*%
%TO.N,GND*%
X237770000Y-67250000D03*
%TD*%
D10*
%TO.P,SW4,1,1*%
%TO.N,button4*%
X266190000Y-100920000D03*
%TO.P,SW4,2,2*%
%TO.N,GND*%
X259840000Y-103460000D03*
%TD*%
D13*
%TO.P,R1,2*%
%TO.N,LED1*%
X229520000Y-50670000D03*
D14*
%TO.P,R1,1*%
%TO.N,Net-(D1-PadA)*%
X229520000Y-55750000D03*
%TD*%
D12*
%TO.P,D1,A*%
%TO.N,Net-(D1-PadA)*%
X235230000Y-53500000D03*
D11*
%TO.P,D1,C*%
%TO.N,GND*%
X237770000Y-53500000D03*
%TD*%
D13*
%TO.P,R3,2*%
%TO.N,LED3*%
X229520000Y-64920000D03*
D14*
%TO.P,R3,1*%
%TO.N,Net-(D3-PadA)*%
X229520000Y-70000000D03*
%TD*%
%TO.P,R4,1*%
%TO.N,Net-(D4-PadA)*%
X275710000Y-70000000D03*
D13*
%TO.P,R4,2*%
%TO.N,LED4*%
X275710000Y-64920000D03*
%TD*%
D10*
%TO.P,SW1,1,1*%
%TO.N,button1*%
X243920000Y-79920000D03*
%TO.P,SW1,2,2*%
%TO.N,GND*%
X237570000Y-82460000D03*
%TD*%
%TO.P,SW2,2,2*%
%TO.N,GND*%
X259840000Y-82460000D03*
%TO.P,SW2,1,1*%
%TO.N,button2*%
X266190000Y-79920000D03*
%TD*%
D15*
%TO.P,U1,14,VBUS*%
%TO.N,unconnected-(U1-VBUS-Pad14)*%
X260955000Y-53880000D03*
D16*
X260120000Y-53880000D03*
D15*
%TO.P,U1,13,GND*%
%TO.N,GND*%
X260955000Y-56420000D03*
D16*
X260120000Y-56420000D03*
D15*
%TO.P,U1,12,3V3*%
%TO.N,unconnected-(U1-3V3-Pad12)*%
X260955000Y-58960000D03*
D16*
X260120000Y-58960000D03*
D15*
%TO.P,U1,11,GPIO3/MOSI*%
%TO.N,button4*%
X260955000Y-61500000D03*
D16*
X260120000Y-61500000D03*
D15*
%TO.P,U1,10,GPIO4/MISO*%
%TO.N,button2*%
X260955000Y-64040000D03*
D16*
X260120000Y-64040000D03*
D15*
%TO.P,U1,9,GPIO2/SCK*%
%TO.N,LED4*%
X260955000Y-66580000D03*
D16*
X260120000Y-66580000D03*
D15*
%TO.P,U1,8,GPIO1/RX*%
%TO.N,LED2*%
X260955000Y-69120000D03*
D16*
X260120000Y-69120000D03*
%TO.P,U1,7,GPIO0/TX*%
%TO.N,LED1*%
X244880000Y-69120000D03*
D17*
X244045000Y-69120000D03*
D16*
%TO.P,U1,6,GPIO7/SCL*%
%TO.N,LED3*%
X244880000Y-66580000D03*
D17*
X244045000Y-66580000D03*
D16*
%TO.P,U1,5,GPIO6/SDA*%
%TO.N,button1*%
X244880000Y-64040000D03*
D17*
X244045000Y-64040000D03*
D16*
%TO.P,U1,4,GPIO29/ADC3/A3*%
%TO.N,button3*%
X244880000Y-61500000D03*
D17*
X244045000Y-61500000D03*
D16*
%TO.P,U1,3,GPIO28/ADC2/A2*%
%TO.N,unconnected-(U1-GPIO28{slash}ADC2{slash}A2-Pad3)*%
X244880000Y-58960000D03*
D17*
X244045000Y-58960000D03*
D16*
%TO.P,U1,2,GPIO27/ADC1/A1*%
%TO.N,unconnected-(U1-GPIO27{slash}ADC1{slash}A1-Pad2)*%
X244880000Y-56420000D03*
D17*
X244045000Y-56420000D03*
D16*
%TO.P,U1,1,GPIO26/ADC0/A0*%
%TO.N,unconnected-(U1-GPIO26{slash}ADC0{slash}A0-Pad1)*%
X244880000Y-53880000D03*
D17*
X244045000Y-53880000D03*
%TD*%
D18*
%TO.N,*%
X233000000Y-37500000D03*
%TD*%
D19*
%TO.N,GND*%
X259840000Y-103460000D02*
X259840000Y-82460000D01*
X237490000Y-103460000D02*
X237570000Y-103380000D01*
X237570000Y-103380000D02*
X237570000Y-82460000D01*
X237570000Y-82460000D02*
X259840000Y-82460000D01*
X259840000Y-82460000D02*
X265629899Y-82460000D01*
X265629899Y-82460000D02*
X267590000Y-80499899D01*
X267590000Y-80499899D02*
X267590000Y-67380000D01*
X267590000Y-67380000D02*
X267460000Y-67250000D01*
%TO.N,button2*%
X258500000Y-72230000D02*
X258500000Y-65660000D01*
X258500000Y-65660000D02*
X260120000Y-64040000D01*
X266190000Y-79920000D02*
X258500000Y-72230000D01*
%TO.N,button1*%
X243920000Y-79920000D02*
X246500000Y-77340000D01*
X246500000Y-77340000D02*
X246500000Y-65660000D01*
X246500000Y-65660000D02*
X244880000Y-64040000D01*
%TO.N,GND*%
X242270000Y-49000000D02*
X262500000Y-49000000D01*
X237770000Y-53500000D02*
X242270000Y-49000000D01*
X262500000Y-49000000D02*
X267000000Y-53500000D01*
X267000000Y-53500000D02*
X267460000Y-53500000D01*
X237770000Y-67250000D02*
X237770000Y-53500000D01*
X267460000Y-53500000D02*
X264730000Y-56230000D01*
X264730000Y-56230000D02*
X264540000Y-56420000D01*
X267460000Y-67250000D02*
X267460000Y-58960000D01*
X267460000Y-58960000D02*
X264730000Y-56230000D01*
X264540000Y-56420000D02*
X260120000Y-56420000D01*
X261197630Y-56420000D02*
X260120000Y-56420000D01*
%TD*%
M02*
