%TF.GenerationSoftware,KiCad,Pcbnew,8.0.9-1.fc40*%
%TF.CreationDate,2025-07-05T11:51:32+08:00*%
%TF.ProjectId,pcb,7063622e-6b69-4636-9164-5f7063625858,rev?*%
%TF.SameCoordinates,Original*%
%TF.FileFunction,Legend,Top*%
%TF.FilePolarity,Positive*%
%FSLAX46Y46*%
G04 Gerber Fmt 4.6, Leading zero omitted, Abs format (unit mm)*
G04 Created by KiCad (PCBNEW 8.0.9-1.fc40) date 2025-07-05 11:51:32*
%MOMM*%
%LPD*%
G01*
G04 APERTURE LIST*
%ADD10C,0.150000*%
%ADD11C,0.101600*%
%ADD12C,0.120000*%
%ADD13C,0.200000*%
%ADD14C,0.127000*%
%ADD15C,0.504000*%
%ADD16C,0.100000*%
G04 APERTURE END LIST*
D10*
X239966667Y-98533200D02*
X240109524Y-98580819D01*
X240109524Y-98580819D02*
X240347619Y-98580819D01*
X240347619Y-98580819D02*
X240442857Y-98533200D01*
X240442857Y-98533200D02*
X240490476Y-98485580D01*
X240490476Y-98485580D02*
X240538095Y-98390342D01*
X240538095Y-98390342D02*
X240538095Y-98295104D01*
X240538095Y-98295104D02*
X240490476Y-98199866D01*
X240490476Y-98199866D02*
X240442857Y-98152247D01*
X240442857Y-98152247D02*
X240347619Y-98104628D01*
X240347619Y-98104628D02*
X240157143Y-98057009D01*
X240157143Y-98057009D02*
X240061905Y-98009390D01*
X240061905Y-98009390D02*
X240014286Y-97961771D01*
X240014286Y-97961771D02*
X239966667Y-97866533D01*
X239966667Y-97866533D02*
X239966667Y-97771295D01*
X239966667Y-97771295D02*
X240014286Y-97676057D01*
X240014286Y-97676057D02*
X240061905Y-97628438D01*
X240061905Y-97628438D02*
X240157143Y-97580819D01*
X240157143Y-97580819D02*
X240395238Y-97580819D01*
X240395238Y-97580819D02*
X240538095Y-97628438D01*
X240871429Y-97580819D02*
X241109524Y-98580819D01*
X241109524Y-98580819D02*
X241300000Y-97866533D01*
X241300000Y-97866533D02*
X241490476Y-98580819D01*
X241490476Y-98580819D02*
X241728572Y-97580819D01*
X242014286Y-97580819D02*
X242633333Y-97580819D01*
X242633333Y-97580819D02*
X242300000Y-97961771D01*
X242300000Y-97961771D02*
X242442857Y-97961771D01*
X242442857Y-97961771D02*
X242538095Y-98009390D01*
X242538095Y-98009390D02*
X242585714Y-98057009D01*
X242585714Y-98057009D02*
X242633333Y-98152247D01*
X242633333Y-98152247D02*
X242633333Y-98390342D01*
X242633333Y-98390342D02*
X242585714Y-98485580D01*
X242585714Y-98485580D02*
X242538095Y-98533200D01*
X242538095Y-98533200D02*
X242442857Y-98580819D01*
X242442857Y-98580819D02*
X242157143Y-98580819D01*
X242157143Y-98580819D02*
X242061905Y-98533200D01*
X242061905Y-98533200D02*
X242014286Y-98485580D01*
X268179524Y-63904295D02*
X268179524Y-63104295D01*
X268179524Y-63104295D02*
X268370000Y-63104295D01*
X268370000Y-63104295D02*
X268484286Y-63142390D01*
X268484286Y-63142390D02*
X268560476Y-63218580D01*
X268560476Y-63218580D02*
X268598571Y-63294771D01*
X268598571Y-63294771D02*
X268636667Y-63447152D01*
X268636667Y-63447152D02*
X268636667Y-63561438D01*
X268636667Y-63561438D02*
X268598571Y-63713819D01*
X268598571Y-63713819D02*
X268560476Y-63790009D01*
X268560476Y-63790009D02*
X268484286Y-63866200D01*
X268484286Y-63866200D02*
X268370000Y-63904295D01*
X268370000Y-63904295D02*
X268179524Y-63904295D01*
X269322381Y-63370961D02*
X269322381Y-63904295D01*
X269131905Y-63066200D02*
X268941428Y-63637628D01*
X268941428Y-63637628D02*
X269436667Y-63637628D01*
X268179524Y-50154295D02*
X268179524Y-49354295D01*
X268179524Y-49354295D02*
X268370000Y-49354295D01*
X268370000Y-49354295D02*
X268484286Y-49392390D01*
X268484286Y-49392390D02*
X268560476Y-49468580D01*
X268560476Y-49468580D02*
X268598571Y-49544771D01*
X268598571Y-49544771D02*
X268636667Y-49697152D01*
X268636667Y-49697152D02*
X268636667Y-49811438D01*
X268636667Y-49811438D02*
X268598571Y-49963819D01*
X268598571Y-49963819D02*
X268560476Y-50040009D01*
X268560476Y-50040009D02*
X268484286Y-50116200D01*
X268484286Y-50116200D02*
X268370000Y-50154295D01*
X268370000Y-50154295D02*
X268179524Y-50154295D01*
X268941428Y-49430485D02*
X268979524Y-49392390D01*
X268979524Y-49392390D02*
X269055714Y-49354295D01*
X269055714Y-49354295D02*
X269246190Y-49354295D01*
X269246190Y-49354295D02*
X269322381Y-49392390D01*
X269322381Y-49392390D02*
X269360476Y-49430485D01*
X269360476Y-49430485D02*
X269398571Y-49506676D01*
X269398571Y-49506676D02*
X269398571Y-49582866D01*
X269398571Y-49582866D02*
X269360476Y-49697152D01*
X269360476Y-49697152D02*
X268903333Y-50154295D01*
X268903333Y-50154295D02*
X269398571Y-50154295D01*
X274244819Y-53376666D02*
X273768628Y-53709999D01*
X274244819Y-53948094D02*
X273244819Y-53948094D01*
X273244819Y-53948094D02*
X273244819Y-53567142D01*
X273244819Y-53567142D02*
X273292438Y-53471904D01*
X273292438Y-53471904D02*
X273340057Y-53424285D01*
X273340057Y-53424285D02*
X273435295Y-53376666D01*
X273435295Y-53376666D02*
X273578152Y-53376666D01*
X273578152Y-53376666D02*
X273673390Y-53424285D01*
X273673390Y-53424285D02*
X273721009Y-53471904D01*
X273721009Y-53471904D02*
X273768628Y-53567142D01*
X273768628Y-53567142D02*
X273768628Y-53948094D01*
X273340057Y-52995713D02*
X273292438Y-52948094D01*
X273292438Y-52948094D02*
X273244819Y-52852856D01*
X273244819Y-52852856D02*
X273244819Y-52614761D01*
X273244819Y-52614761D02*
X273292438Y-52519523D01*
X273292438Y-52519523D02*
X273340057Y-52471904D01*
X273340057Y-52471904D02*
X273435295Y-52424285D01*
X273435295Y-52424285D02*
X273530533Y-52424285D01*
X273530533Y-52424285D02*
X273673390Y-52471904D01*
X273673390Y-52471904D02*
X274244819Y-53043332D01*
X274244819Y-53043332D02*
X274244819Y-52424285D01*
X235869524Y-63862295D02*
X235869524Y-63062295D01*
X235869524Y-63062295D02*
X236060000Y-63062295D01*
X236060000Y-63062295D02*
X236174286Y-63100390D01*
X236174286Y-63100390D02*
X236250476Y-63176580D01*
X236250476Y-63176580D02*
X236288571Y-63252771D01*
X236288571Y-63252771D02*
X236326667Y-63405152D01*
X236326667Y-63405152D02*
X236326667Y-63519438D01*
X236326667Y-63519438D02*
X236288571Y-63671819D01*
X236288571Y-63671819D02*
X236250476Y-63748009D01*
X236250476Y-63748009D02*
X236174286Y-63824200D01*
X236174286Y-63824200D02*
X236060000Y-63862295D01*
X236060000Y-63862295D02*
X235869524Y-63862295D01*
X236593333Y-63062295D02*
X237088571Y-63062295D01*
X237088571Y-63062295D02*
X236821905Y-63367057D01*
X236821905Y-63367057D02*
X236936190Y-63367057D01*
X236936190Y-63367057D02*
X237012381Y-63405152D01*
X237012381Y-63405152D02*
X237050476Y-63443247D01*
X237050476Y-63443247D02*
X237088571Y-63519438D01*
X237088571Y-63519438D02*
X237088571Y-63709914D01*
X237088571Y-63709914D02*
X237050476Y-63786104D01*
X237050476Y-63786104D02*
X237012381Y-63824200D01*
X237012381Y-63824200D02*
X236936190Y-63862295D01*
X236936190Y-63862295D02*
X236707619Y-63862295D01*
X236707619Y-63862295D02*
X236631428Y-63824200D01*
X236631428Y-63824200D02*
X236593333Y-63786104D01*
X262316667Y-98533200D02*
X262459524Y-98580819D01*
X262459524Y-98580819D02*
X262697619Y-98580819D01*
X262697619Y-98580819D02*
X262792857Y-98533200D01*
X262792857Y-98533200D02*
X262840476Y-98485580D01*
X262840476Y-98485580D02*
X262888095Y-98390342D01*
X262888095Y-98390342D02*
X262888095Y-98295104D01*
X262888095Y-98295104D02*
X262840476Y-98199866D01*
X262840476Y-98199866D02*
X262792857Y-98152247D01*
X262792857Y-98152247D02*
X262697619Y-98104628D01*
X262697619Y-98104628D02*
X262507143Y-98057009D01*
X262507143Y-98057009D02*
X262411905Y-98009390D01*
X262411905Y-98009390D02*
X262364286Y-97961771D01*
X262364286Y-97961771D02*
X262316667Y-97866533D01*
X262316667Y-97866533D02*
X262316667Y-97771295D01*
X262316667Y-97771295D02*
X262364286Y-97676057D01*
X262364286Y-97676057D02*
X262411905Y-97628438D01*
X262411905Y-97628438D02*
X262507143Y-97580819D01*
X262507143Y-97580819D02*
X262745238Y-97580819D01*
X262745238Y-97580819D02*
X262888095Y-97628438D01*
X263221429Y-97580819D02*
X263459524Y-98580819D01*
X263459524Y-98580819D02*
X263650000Y-97866533D01*
X263650000Y-97866533D02*
X263840476Y-98580819D01*
X263840476Y-98580819D02*
X264078572Y-97580819D01*
X264888095Y-97914152D02*
X264888095Y-98580819D01*
X264650000Y-97533200D02*
X264411905Y-98247485D01*
X264411905Y-98247485D02*
X265030952Y-98247485D01*
X228054819Y-53376666D02*
X227578628Y-53709999D01*
X228054819Y-53948094D02*
X227054819Y-53948094D01*
X227054819Y-53948094D02*
X227054819Y-53567142D01*
X227054819Y-53567142D02*
X227102438Y-53471904D01*
X227102438Y-53471904D02*
X227150057Y-53424285D01*
X227150057Y-53424285D02*
X227245295Y-53376666D01*
X227245295Y-53376666D02*
X227388152Y-53376666D01*
X227388152Y-53376666D02*
X227483390Y-53424285D01*
X227483390Y-53424285D02*
X227531009Y-53471904D01*
X227531009Y-53471904D02*
X227578628Y-53567142D01*
X227578628Y-53567142D02*
X227578628Y-53948094D01*
X228054819Y-52424285D02*
X228054819Y-52995713D01*
X228054819Y-52709999D02*
X227054819Y-52709999D01*
X227054819Y-52709999D02*
X227197676Y-52805237D01*
X227197676Y-52805237D02*
X227292914Y-52900475D01*
X227292914Y-52900475D02*
X227340533Y-52995713D01*
X235869524Y-50112295D02*
X235869524Y-49312295D01*
X235869524Y-49312295D02*
X236060000Y-49312295D01*
X236060000Y-49312295D02*
X236174286Y-49350390D01*
X236174286Y-49350390D02*
X236250476Y-49426580D01*
X236250476Y-49426580D02*
X236288571Y-49502771D01*
X236288571Y-49502771D02*
X236326667Y-49655152D01*
X236326667Y-49655152D02*
X236326667Y-49769438D01*
X236326667Y-49769438D02*
X236288571Y-49921819D01*
X236288571Y-49921819D02*
X236250476Y-49998009D01*
X236250476Y-49998009D02*
X236174286Y-50074200D01*
X236174286Y-50074200D02*
X236060000Y-50112295D01*
X236060000Y-50112295D02*
X235869524Y-50112295D01*
X237088571Y-50112295D02*
X236631428Y-50112295D01*
X236860000Y-50112295D02*
X236860000Y-49312295D01*
X236860000Y-49312295D02*
X236783809Y-49426580D01*
X236783809Y-49426580D02*
X236707619Y-49502771D01*
X236707619Y-49502771D02*
X236631428Y-49540866D01*
X228054819Y-67626666D02*
X227578628Y-67959999D01*
X228054819Y-68198094D02*
X227054819Y-68198094D01*
X227054819Y-68198094D02*
X227054819Y-67817142D01*
X227054819Y-67817142D02*
X227102438Y-67721904D01*
X227102438Y-67721904D02*
X227150057Y-67674285D01*
X227150057Y-67674285D02*
X227245295Y-67626666D01*
X227245295Y-67626666D02*
X227388152Y-67626666D01*
X227388152Y-67626666D02*
X227483390Y-67674285D01*
X227483390Y-67674285D02*
X227531009Y-67721904D01*
X227531009Y-67721904D02*
X227578628Y-67817142D01*
X227578628Y-67817142D02*
X227578628Y-68198094D01*
X227054819Y-67293332D02*
X227054819Y-66674285D01*
X227054819Y-66674285D02*
X227435771Y-67007618D01*
X227435771Y-67007618D02*
X227435771Y-66864761D01*
X227435771Y-66864761D02*
X227483390Y-66769523D01*
X227483390Y-66769523D02*
X227531009Y-66721904D01*
X227531009Y-66721904D02*
X227626247Y-66674285D01*
X227626247Y-66674285D02*
X227864342Y-66674285D01*
X227864342Y-66674285D02*
X227959580Y-66721904D01*
X227959580Y-66721904D02*
X228007200Y-66769523D01*
X228007200Y-66769523D02*
X228054819Y-66864761D01*
X228054819Y-66864761D02*
X228054819Y-67150475D01*
X228054819Y-67150475D02*
X228007200Y-67245713D01*
X228007200Y-67245713D02*
X227959580Y-67293332D01*
X274244819Y-67626666D02*
X273768628Y-67959999D01*
X274244819Y-68198094D02*
X273244819Y-68198094D01*
X273244819Y-68198094D02*
X273244819Y-67817142D01*
X273244819Y-67817142D02*
X273292438Y-67721904D01*
X273292438Y-67721904D02*
X273340057Y-67674285D01*
X273340057Y-67674285D02*
X273435295Y-67626666D01*
X273435295Y-67626666D02*
X273578152Y-67626666D01*
X273578152Y-67626666D02*
X273673390Y-67674285D01*
X273673390Y-67674285D02*
X273721009Y-67721904D01*
X273721009Y-67721904D02*
X273768628Y-67817142D01*
X273768628Y-67817142D02*
X273768628Y-68198094D01*
X273578152Y-66769523D02*
X274244819Y-66769523D01*
X273197200Y-67007618D02*
X273911485Y-67245713D01*
X273911485Y-67245713D02*
X273911485Y-66626666D01*
X240046667Y-77533200D02*
X240189524Y-77580819D01*
X240189524Y-77580819D02*
X240427619Y-77580819D01*
X240427619Y-77580819D02*
X240522857Y-77533200D01*
X240522857Y-77533200D02*
X240570476Y-77485580D01*
X240570476Y-77485580D02*
X240618095Y-77390342D01*
X240618095Y-77390342D02*
X240618095Y-77295104D01*
X240618095Y-77295104D02*
X240570476Y-77199866D01*
X240570476Y-77199866D02*
X240522857Y-77152247D01*
X240522857Y-77152247D02*
X240427619Y-77104628D01*
X240427619Y-77104628D02*
X240237143Y-77057009D01*
X240237143Y-77057009D02*
X240141905Y-77009390D01*
X240141905Y-77009390D02*
X240094286Y-76961771D01*
X240094286Y-76961771D02*
X240046667Y-76866533D01*
X240046667Y-76866533D02*
X240046667Y-76771295D01*
X240046667Y-76771295D02*
X240094286Y-76676057D01*
X240094286Y-76676057D02*
X240141905Y-76628438D01*
X240141905Y-76628438D02*
X240237143Y-76580819D01*
X240237143Y-76580819D02*
X240475238Y-76580819D01*
X240475238Y-76580819D02*
X240618095Y-76628438D01*
X240951429Y-76580819D02*
X241189524Y-77580819D01*
X241189524Y-77580819D02*
X241380000Y-76866533D01*
X241380000Y-76866533D02*
X241570476Y-77580819D01*
X241570476Y-77580819D02*
X241808572Y-76580819D01*
X242713333Y-77580819D02*
X242141905Y-77580819D01*
X242427619Y-77580819D02*
X242427619Y-76580819D01*
X242427619Y-76580819D02*
X242332381Y-76723676D01*
X242332381Y-76723676D02*
X242237143Y-76818914D01*
X242237143Y-76818914D02*
X242141905Y-76866533D01*
X262316667Y-77533200D02*
X262459524Y-77580819D01*
X262459524Y-77580819D02*
X262697619Y-77580819D01*
X262697619Y-77580819D02*
X262792857Y-77533200D01*
X262792857Y-77533200D02*
X262840476Y-77485580D01*
X262840476Y-77485580D02*
X262888095Y-77390342D01*
X262888095Y-77390342D02*
X262888095Y-77295104D01*
X262888095Y-77295104D02*
X262840476Y-77199866D01*
X262840476Y-77199866D02*
X262792857Y-77152247D01*
X262792857Y-77152247D02*
X262697619Y-77104628D01*
X262697619Y-77104628D02*
X262507143Y-77057009D01*
X262507143Y-77057009D02*
X262411905Y-77009390D01*
X262411905Y-77009390D02*
X262364286Y-76961771D01*
X262364286Y-76961771D02*
X262316667Y-76866533D01*
X262316667Y-76866533D02*
X262316667Y-76771295D01*
X262316667Y-76771295D02*
X262364286Y-76676057D01*
X262364286Y-76676057D02*
X262411905Y-76628438D01*
X262411905Y-76628438D02*
X262507143Y-76580819D01*
X262507143Y-76580819D02*
X262745238Y-76580819D01*
X262745238Y-76580819D02*
X262888095Y-76628438D01*
X263221429Y-76580819D02*
X263459524Y-77580819D01*
X263459524Y-77580819D02*
X263650000Y-76866533D01*
X263650000Y-76866533D02*
X263840476Y-77580819D01*
X263840476Y-77580819D02*
X264078572Y-76580819D01*
X264411905Y-76676057D02*
X264459524Y-76628438D01*
X264459524Y-76628438D02*
X264554762Y-76580819D01*
X264554762Y-76580819D02*
X264792857Y-76580819D01*
X264792857Y-76580819D02*
X264888095Y-76628438D01*
X264888095Y-76628438D02*
X264935714Y-76676057D01*
X264935714Y-76676057D02*
X264983333Y-76771295D01*
X264983333Y-76771295D02*
X264983333Y-76866533D01*
X264983333Y-76866533D02*
X264935714Y-77009390D01*
X264935714Y-77009390D02*
X264364286Y-77580819D01*
X264364286Y-77580819D02*
X264983333Y-77580819D01*
D11*
X252016190Y-59653479D02*
X252016190Y-60167526D01*
X252016190Y-60167526D02*
X252046428Y-60228002D01*
X252046428Y-60228002D02*
X252076666Y-60258241D01*
X252076666Y-60258241D02*
X252137142Y-60288479D01*
X252137142Y-60288479D02*
X252258095Y-60288479D01*
X252258095Y-60288479D02*
X252318571Y-60258241D01*
X252318571Y-60258241D02*
X252348809Y-60228002D01*
X252348809Y-60228002D02*
X252379047Y-60167526D01*
X252379047Y-60167526D02*
X252379047Y-59653479D01*
X253014047Y-60288479D02*
X252651190Y-60288479D01*
X252832618Y-60288479D02*
X252832618Y-59653479D01*
X252832618Y-59653479D02*
X252772142Y-59744193D01*
X252772142Y-59744193D02*
X252711666Y-59804669D01*
X252711666Y-59804669D02*
X252651190Y-59834907D01*
D12*
%TO.C,SW3*%
X248285000Y-112985000D02*
X234315000Y-112985000D01*
X248285000Y-99015000D02*
X248285000Y-112985000D01*
X234315000Y-112985000D02*
X234315000Y-99015000D01*
X234315000Y-99015000D02*
X248285000Y-99015000D01*
D13*
%TO.C,D4*%
X265630000Y-67250000D02*
G75*
G02*
X265430000Y-67250000I-100000J0D01*
G01*
X265430000Y-67250000D02*
G75*
G02*
X265630000Y-67250000I100000J0D01*
G01*
D14*
X266230000Y-65684000D02*
G75*
G02*
X266230000Y-68816000I2506124J-1566000D01*
G01*
X266230000Y-65684000D02*
X266230000Y-68816000D01*
%TO.C,D2*%
X266230000Y-51934000D02*
X266230000Y-55066000D01*
X266230000Y-51934000D02*
G75*
G02*
X266230000Y-55066000I2506124J-1566000D01*
G01*
D13*
X265630000Y-53500000D02*
G75*
G02*
X265430000Y-53500000I-100000J0D01*
G01*
X265430000Y-53500000D02*
G75*
G02*
X265630000Y-53500000I100000J0D01*
G01*
D12*
%TO.C,R2*%
X276630000Y-55130000D02*
X276630000Y-51290000D01*
X274790000Y-55130000D02*
X274790000Y-51290000D01*
D14*
%TO.C,D3*%
X239000000Y-68816000D02*
X239000000Y-65684000D01*
X239000000Y-68816000D02*
G75*
G02*
X239000000Y-65684000I-2506124J1566000D01*
G01*
D13*
X239800000Y-67250000D02*
G75*
G02*
X239600000Y-67250000I-100000J0D01*
G01*
X239600000Y-67250000D02*
G75*
G02*
X239800000Y-67250000I100000J0D01*
G01*
D12*
%TO.C,SW4*%
X256665000Y-99015000D02*
X270635000Y-99015000D01*
X256665000Y-112985000D02*
X256665000Y-99015000D01*
X270635000Y-99015000D02*
X270635000Y-112985000D01*
X270635000Y-112985000D02*
X256665000Y-112985000D01*
%TO.C,R1*%
X230440000Y-55130000D02*
X230440000Y-51290000D01*
X228600000Y-55130000D02*
X228600000Y-51290000D01*
D14*
%TO.C,D1*%
X239000000Y-55066000D02*
X239000000Y-51934000D01*
X239000000Y-55066000D02*
G75*
G02*
X239000000Y-51934000I-2506124J1566000D01*
G01*
D13*
X239800000Y-53500000D02*
G75*
G02*
X239600000Y-53500000I-100000J0D01*
G01*
X239600000Y-53500000D02*
G75*
G02*
X239800000Y-53500000I100000J0D01*
G01*
D12*
%TO.C,R3*%
X230440000Y-69380000D02*
X230440000Y-65540000D01*
X228600000Y-69380000D02*
X228600000Y-65540000D01*
%TO.C,R4*%
X274790000Y-69380000D02*
X274790000Y-65540000D01*
X276630000Y-69380000D02*
X276630000Y-65540000D01*
%TO.C,SW1*%
X234395000Y-78015000D02*
X248365000Y-78015000D01*
X234395000Y-91985000D02*
X234395000Y-78015000D01*
X248365000Y-78015000D02*
X248365000Y-91985000D01*
X248365000Y-91985000D02*
X234395000Y-91985000D01*
%TO.C,SW2*%
X270635000Y-91985000D02*
X256665000Y-91985000D01*
X270635000Y-78015000D02*
X270635000Y-91985000D01*
X256665000Y-91985000D02*
X256665000Y-78015000D01*
X256665000Y-78015000D02*
X270635000Y-78015000D01*
%TO.C,U1*%
D15*
X244945000Y-52080000D02*
G75*
G02*
X244441000Y-52080000I-252000J0D01*
G01*
X244441000Y-52080000D02*
G75*
G02*
X244945000Y-52080000I252000J0D01*
G01*
X243802000Y-51200000D02*
G75*
G02*
X243298000Y-51200000I-252000J0D01*
G01*
X243298000Y-51200000D02*
G75*
G02*
X243802000Y-51200000I252000J0D01*
G01*
D14*
X261390000Y-70009000D02*
G75*
G02*
X259485000Y-71914000I-1905000J0D01*
G01*
X259485000Y-50959000D02*
G75*
G02*
X261390000Y-52864000I0J-1905000D01*
G01*
X256504000Y-49549000D02*
G75*
G02*
X257004000Y-50049000I0J-500000D01*
G01*
X248008728Y-50048728D02*
G75*
G02*
X248508728Y-49549001I500018J-291D01*
G01*
X245515000Y-71914000D02*
G75*
G02*
X243610000Y-70009000I1J1905001D01*
G01*
X243610000Y-52864000D02*
G75*
G02*
X245515000Y-50959000I1905001J-1D01*
G01*
X261390000Y-70009000D02*
X261390000Y-52864000D01*
X259485000Y-50959000D02*
X245515000Y-50959000D01*
D16*
X259485000Y-50959000D02*
X245515000Y-50959000D01*
D14*
X257004000Y-50049000D02*
X257004000Y-50959000D01*
X248508728Y-49549000D02*
X256504000Y-49549000D01*
X248005000Y-50959000D02*
X248008728Y-50048728D01*
X245515000Y-71914000D02*
X259485000Y-71914000D01*
X243610000Y-70009000D02*
X243610000Y-52864000D01*
%TD*%
M02*
